<svg width="20" height="20" viewBox="0 0 22 22" fill="none" xmlns="http://www.w3.org/2000/svg">
<path d="M21.0604 7.96947L14.5649 1.47395C12.5946 -0.491317 9.40543 -0.491317 7.4351 1.47395L0.939609 7.96947C0.335985 8.56987 -0.00235098 9.38679 1.22979e-05 10.2382V19.7514C0.00203183 20.9932 1.0087 21.999 2.25045 22H19.7496C20.9913 21.999 21.998 20.9932 22 19.7514V10.2382C22.0024 9.38679 21.6641 8.56987 21.0604 7.96947ZM19.25 19.25H14.6667V16.3331C14.6667 14.4002 13.0997 12.8333 11.1668 12.8333H10.8332C8.90029 12.8333 7.33335 14.4002 7.33335 16.3331V19.25H2.75001V10.2382C2.75031 10.1167 2.79835 10.0001 2.88386 9.91372L9.37935 3.4182C10.2742 2.52312 11.7252 2.52295 12.6203 3.41777C12.6204 3.4179 12.6206 3.41808 12.6207 3.4182L19.1162 9.91372C19.2016 10.0001 19.2497 10.1167 19.25 10.2382V19.25H19.25Z" fill="#EDF2F8"/>
</svg>
