<svg width="30" height="30" viewBox="0 0 30 30" fill="none" xmlns="http://www.w3.org/2000/svg">
<path d="M23.4687 11.375L18.625 6.53125L20.8125 4.34375C21.1667 3.98958 21.6042 3.8125 22.125 3.8125C22.6458 3.8125 23.0833 3.98958 23.4375 4.34375L25.6562 6.5625C26.0104 6.91667 26.1875 7.35417 26.1875 7.875C26.1875 8.39583 26.0104 8.83333 25.6562 9.1875L23.4687 11.375ZM3.75 26.25V21.375L9.8125 15.3125L2.90625 8.375L8.34375 2.875L15.3125 9.84375L18.625 6.53125L23.4687 11.375L20.1562 14.6875L27.125 21.6562L21.6563 27.0625L14.7188 20.1562L8.625 26.25H3.75ZM11.1562 13.9688L13.9688 11.1562L11.6875 8.875L10.1875 10.375L8.875 9.0625L10.375 7.5625L8.375 5.5625L5.5625 8.375L11.1562 13.9688ZM21.5938 24.4375L24.4062 21.625L22.4062 19.625L20.9062 21.125L19.5938 19.8125L21.0938 18.3125L18.8125 16.0312L16 18.8438L21.5938 24.4375ZM5.625 24.375H7.8125L20.7812 11.4062L18.5938 9.21875L5.625 22.1875V24.375Z" fill="white"/>
</svg>
