<svg width="28" height="28" viewBox="0 0 30 30" fill="none" xmlns="http://www.w3.org/2000/svg">
<path d="M8.125 7.28125C7.5 7.28125 6.96354 7.05729 6.51562 6.60938C6.06771 6.16146 5.84375 5.625 5.84375 5C5.84375 4.375 6.06771 3.83854 6.51562 3.39063C6.96354 2.94271 7.5 2.71875 8.125 2.71875C8.75 2.71875 9.28646 2.94271 9.73438 3.39063C10.1823 3.83854 10.4062 4.375 10.4062 5C10.4062 5.625 10.1823 6.16146 9.73438 6.60938C9.28646 7.05729 8.75 7.28125 8.125 7.28125ZM21.7188 14.375C21.1979 14.375 20.7552 14.1927 20.3906 13.8281C20.026 13.4635 19.8438 13.0208 19.8438 12.5C19.8438 11.9792 20.026 11.5365 20.3906 11.1719C20.7552 10.8073 21.1979 10.625 21.7188 10.625C22.2396 10.625 22.6823 10.8073 23.0469 11.1719C23.4115 11.5365 23.5938 11.9792 23.5938 12.5C23.5938 13.0208 23.4115 13.4635 23.0469 13.8281C22.6823 14.1927 22.2396 14.375 21.7188 14.375ZM5.9375 27.5V18.4375H3.75V10.625C3.75 10.1042 3.93229 9.66146 4.29688 9.29688C4.66146 8.93229 5.10417 8.75 5.625 8.75H10.375C10.7292 8.75 11.0573 8.84375 11.3594 9.03125C11.6615 9.21875 11.8958 9.47917 12.0625 9.8125L16.3125 18.5L18.5938 16.0625C18.7188 15.9167 18.8698 15.8073 19.0469 15.7344C19.224 15.6615 19.4062 15.625 19.5938 15.625H23.625C24 15.625 24.3229 15.7604 24.5938 16.0312C24.8646 16.3021 25 16.625 25 17V22.1875H23.4375V27.5H19.0625V18.0312L17.2188 20H15.0312L10.9375 11.7812V27.5H5.9375Z" fill="white"/>
</svg>
